<svg width="88" height="88" xmlns="http://www.w3.org/2000/svg"><defs><linearGradient x1="0%" y1="0%" x2="100%" y2="100%" id="a"><stop stop-color="#FF9D7E" offset="0%"/><stop stop-color="#FD6653" offset="100%"/></linearGradient></defs><g fill="none" fill-rule="evenodd"><circle fill="url(#a)" cx="44" cy="44" r="44"/><path d="M63.84 35.616H58.4s-3.52-5.518-8.64-6.473l-1.707-5.412s9.814.424 15.787 11.885zM40.16 23.731l-1.707 5.412c-5.12.955-8.64 6.473-8.64 6.473h-5.44c5.974-11.46 15.787-11.885 15.787-11.885zM12.32 36.359l2.027.955h20.16l-1.92 5.625H17.44l-5.12-6.58zm5.973 8.065H32.16l-2.027 5.2h-2.666s.64 2.335 1.92 4.245l-1.92 5.625s-4.16-5.094-5.12-10.188l-4.054-4.882zM65.76 49.2c-.96 5.094-5.12 10.188-5.12 10.188l-1.92-5.625c1.173-1.91 1.92-4.245 1.92-4.245h-2.667l-2.026-5.2h13.866L65.76 49.2zm4.907-6.367H56.053L36.427 60.024c1.173.637 4.266 1.91 7.68 1.91 3.093 0 6.08-1.167 7.573-1.91l-6.507-5.518 3.52-3.396 2.027 1.274-.533-2.441 3.946-3.502 7.68 22.392-6.4-5.519c-1.28 1.062-5.013 3.502-11.626 3.502-6.614 0-10.24-2.334-11.52-3.29l-6.4 5.519L43.893 18l7.36 20.27-4.48 3.714-2.666-7.11-5.974 16.342L54.24 37.102h19.52l1.92-.743-5.013 6.474z" fill="#FFF" fill-rule="nonzero"/></g></svg>