<svg width="88" height="88" xmlns="http://www.w3.org/2000/svg"><defs><linearGradient x1="0%" y1="0%" x2="100%" y2="100%" id="a"><stop stop-color="#96E0FD" offset="0%"/><stop stop-color="#60ACFA" offset="100%"/></linearGradient></defs><g fill="none" fill-rule="evenodd"><circle fill="url(#a)" cx="44" cy="44" r="44"/><path d="M60.2 47.9c1.4 1.9 3 3.2 4.8 3.8-.8 2.4-2 4.9-3.7 7.4-2.6 3.9-5.2 5.8-7.7 5.8-1 0-2.4-.3-4.2-1-1.7-.6-3.2-1-4.5-1-1.3 0-2.7.3-4.3 1-1.6.6-3 1-4 1-3.1 0-6.1-2.6-9-7.7-3-5.1-4.4-10-4.4-14.9 0-4.5 1.1-8.2 3.4-11.1 2.3-2.9 5.2-4.3 8.6-4.3.7 0 1.6.1 2.5.3.9.2 1.9.5 2.9 1 1.1.6 1.9 1 2.6 1.2.7.2 1.2.3 1.6.3.4 0 1.1-.1 2-.3.9-.2 1.8-.6 2.8-1.1 1-.5 1.8-.9 2.5-1.2.7-.3 1.4-.4 2.2-.4 2.4 0 4.5.6 6.4 1.9 1 .7 2.1 1.7 3.1 3-1.6 1.3-2.7 2.5-3.4 3.5-1.3 1.9-2 3.9-2 6.1-.3 2.5.4 4.7 1.8 6.7zM50 24.4c-1.2 1.1-2.3 1.8-3.3 2.2-.3.1-.8.2-1.3.3-.5.1-1.1.2-1.8.2 0-3 .8-5.5 2.3-7.6 1.5-2.1 4-3.6 7.5-4.4.1.3.1.6.2.7v.6c0 1.2-.3 2.6-.9 4.1-.5 1.3-1.5 2.7-2.7 3.9z" fill="#FFF" fill-rule="nonzero"/></g></svg>