<svg width="88" height="88" xmlns="http://www.w3.org/2000/svg"><defs><linearGradient x1="0%" y1="0%" x2="100%" y2="100%" id="a"><stop stop-color="#86EDBE" offset="0%"/><stop stop-color="#68D795" offset="100%"/></linearGradient></defs><g fill="none" fill-rule="evenodd"><circle fill="url(#a)" cx="44" cy="44" r="44"/><path d="M26 34.24c1.7 0 3 1.3 3 3v12c0 1.7-1.3 3-3 3s-3-1.3-3-3v-12c0-1.7 1.3-3 3-3zm5 21v-21h26v21c0 1.3-1.7 3-3 3h-2v7c0 1.7-1.3 3-3 3s-3-1.3-3-3v-7h-4v7c0 1.7-1.3 3-3 3s-3-1.3-3-3v-7h-2c-1.3 0-3-1.7-3-3zm20-33c4 1.8 5.6 5.9 6 10H31c.4-4.1 2-8.2 6-10l-2-3c-.1-.2-1-1.4 0-2 .9-.6 1.3 0 2 1l2 3c1.7-.7 3-1 5-1s3.3.3 5 1l2-3c.5-.6 1.2-1.5 2-1 1 .6.1 1.8 0 2l-2 3zm11 12c1.7 0 3 1.3 3 3v12c0 1.7-1.3 3-3 3s-3-1.3-3-3v-12c0-1.7 1.3-3 3-3zm-22.5-9c-.8 0-1.5.7-1.5 1.5s.7 1.5 1.5 1.5 1.5-.7 1.5-1.5-.7-1.5-1.5-1.5zm9 0c-.8 0-1.5.7-1.5 1.5s.7 1.5 1.5 1.5 1.5-.7 1.5-1.5-.7-1.5-1.5-1.5z" fill="#FFF" fill-rule="nonzero"/></g></svg>