<svg width="88" height="88" xmlns="http://www.w3.org/2000/svg"><defs><linearGradient x1="0%" y1="0%" x2="100%" y2="100%" id="a"><stop stop-color="#FFBE68" offset="0%"/><stop stop-color="#FF9658" offset="100%"/></linearGradient></defs><g fill="none" fill-rule="evenodd"><circle fill="url(#a)" cx="44" cy="44" r="44"/><path d="M57.453 68c-.5 0-1.2-.2-1.7-.5l-11.7-5.9-11.8 5.9c-1.2.6-2.7.5-3.8-.3-1.1-.8-1.7-2.3-1.4-3.6l2.4-12.6-9.3-8.6c-1-1-1.4-2.5-1-3.8.5-1.4 1.5-2.3 3-2.5l12.9-2.3 5.8-11.7c.6-1.3 1.9-2.1 3.2-2.1 1.4 0 2.7.8 3.2 2.1l5.8 11.7 12.9 2.3c1.4.2 2.5 1.2 2.9 2.5.5 1.4.1 2.8-.9 3.8l-9.3 8.7 2.3 12.6c.3 1.4-.4 2.8-1.4 3.6-.5.4-1.2.7-2.1.7z" fill="#FFF"/></g></svg>