<svg width="48" height="48" xmlns="http://www.w3.org/2000/svg"><defs><linearGradient x1="0%" y1="0%" x2="100%" y2="100%" id="a"><stop stop-color="#99BFFF" offset="0%"/><stop stop-color="#858AFF" offset="100%"/></linearGradient></defs><path d="M32 48H6c-3.3 0-6-2.7-6-6V12c0-3.3 2.7-6 6-6h3v2c0 1.1.9 2 2 2h16c1.1 0 2-.9 2-2V6h3c3.3 0 6 2.7 6 6v30c0 3.3-2.7 6-6 6zm-2.5-29h-21c-.8 0-1.5.7-1.5 1.5S7.7 22 8.5 22h21c.8 0 1.5-.7 1.5-1.5s-.7-1.5-1.5-1.5zm0 9h-21c-.8 0-1.5.7-1.5 1.5S7.7 31 8.5 31h21c.8 0 1.5-.7 1.5-1.5s-.7-1.5-1.5-1.5zm0 9h-21c-.8 0-1.5.7-1.5 1.5S7.7 40 8.5 40h21c.8 0 1.5-.7 1.5-1.5s-.7-1.5-1.5-1.5zM25 8H13c-1.1 0-2-.9-2-2V5c0-1.1.9-2 2-2h1V2c0-1.1.9-2 2-2h6c1.1 0 2 .9 2 2v1h1c1.1 0 2 .9 2 2v1c0 1.1-.9 2-2 2z" transform="translate(5)" fill="url(#a)" fill-rule="evenodd"/></svg>