<svg width="48" height="48" xmlns="http://www.w3.org/2000/svg"><defs><linearGradient x1="0%" y1="0%" x2="100%" y2="100%" id="a"><stop stop-color="#FE949E" offset="0%"/><stop stop-color="#FF5A88" offset="100%"/></linearGradient></defs><path d="M32 48H6c-3.3 0-6-2.7-6-6V12c0-3.3 2.7-6 6-6h3v2c0 1.1.9 2 2 2h16c1.1 0 2-.9 2-2V6h3c3.3 0 6 2.7 6 6v30c0 3.3-2.7 6-6 6zm-3.6-23.2L20.6 17c-.5-.5-1.1-.5-1.7-.3-.6-.2-1.2-.2-1.7.3l-7.8 7.8c-.6.6-.6 1.5 0 2.1.6.6 1.5.6 2.1 0l5.8-5.8v12.4c0 .8.7 1.5 1.5 1.5s1.5-.7 1.5-1.5V21.1l5.8 5.8c.6.6 1.5.6 2.1 0 .8-.5.8-1.5.2-2.1zm.1 13.2h-19c-.8 0-1.5.7-1.5 1.5S8.7 41 9.5 41h19c.8 0 1.5-.7 1.5-1.5s-.7-1.5-1.5-1.5zM25 8H13c-1.1 0-2-.9-2-2V5c0-1.1.9-2 2-2h1V2c0-1.1.9-2 2-2h6c1.1 0 2 .9 2 2v1h1c1.1 0 2 .9 2 2v1c0 1.1-.9 2-2 2z" transform="translate(5)" fill="url(#a)" fill-rule="evenodd"/></svg>