<svg width="30" height="30" xmlns="http://www.w3.org/2000/svg"><g fill="none" fill-rule="evenodd"><rect fill="#4A4A4A" width="30" height="30" rx="5"/><path d="M18.054 5.764c.825-.996 1.379-2.38 1.228-3.764-1.185.047-2.625.792-3.472 1.785-.76.884-1.427 2.293-1.25 3.645 1.322.103 2.672-.67 3.494-1.666m6.13 13.518c-.03.08-.497 1.69-1.634 3.348-.979 1.437-2 2.87-3.606 2.898-1.575.03-2.082-.935-3.886-.935-1.803 0-2.366.906-3.86.965-1.55.061-2.727-1.552-3.719-2.981-2.025-2.925-3.568-8.268-1.496-11.87 1.034-1.791 2.875-2.923 4.876-2.954 1.524-.025 2.959 1.024 3.889 1.024.93 0 2.674-1.268 4.51-1.082.765.035 2.922.31 4.31 2.337-.115.073-2.575 1.502-2.548 4.484.03 3.565 3.127 4.752 3.164 4.766" fill="#FFF"/></g></svg>